<svg xmlns="http://www.w3.org/2000/svg" xmlns:xlink="http://www.w3.org/1999/xlink" width="500" zoomAndPan="magnify" viewBox="0 0 375 374.999991" height="500" preserveAspectRatio="xMidYMid meet" version="1.2"><g id="3430eb3118"><path style="fill:none;stroke-width:16;stroke-linecap:round;stroke-linejoin:miter;stroke:#ba9593;stroke-opacity:1;stroke-miterlimit:4;" d="M 8.001309 8.002487 L 246.782575 8.002487 " transform="matrix(0.75,0,0,0.75,111.909175,295.369229)"/><path style="fill:none;stroke-width:16;stroke-linecap:round;stroke-linejoin:miter;stroke:#ba9593;stroke-opacity:1;stroke-miterlimit:4;" d="M 8.001309 7.99837 L 246.782575 7.99837 " transform="matrix(0.75,0,0,0.75,111.909175,271.837161)"/><path style="fill:none;stroke-width:16;stroke-linecap:round;stroke-linejoin:miter;stroke:#ba9593;stroke-opacity:1;stroke-miterlimit:4;" d="M 8.001309 7.998344 L 246.782575 7.998344 " transform="matrix(0.75,0,0,0.75,111.909175,198.33718)"/><path style="fill:none;stroke-width:16;stroke-linecap:round;stroke-linejoin:miter;stroke:#ba9593;stroke-opacity:1;stroke-miterlimit:4;" d="M 8.001309 7.999457 L 246.782575 7.999457 " transform="matrix(0.75,0,0,0.75,111.909175,174.805095)"/><path style="fill:none;stroke-width:16;stroke-linecap:round;stroke-linejoin:miter;stroke:#ba9593;stroke-opacity:1;stroke-miterlimit:4;" d="M 8.001309 8.001673 L 246.782575 8.001673 " transform="matrix(0.75,0,0,0.75,111.909175,91.162808)"/><path style="fill:none;stroke-width:16;stroke-linecap:round;stroke-linejoin:miter;stroke:#ba9593;stroke-opacity:1;stroke-miterlimit:4;" d="M 8.001309 7.997545 L 246.782575 7.997545 " transform="matrix(0.75,0,0,0.75,111.909175,67.630748)"/><path style="fill:none;stroke-width:16;stroke-linecap:round;stroke-linejoin:miter;stroke:#ba9593;stroke-opacity:1;stroke-miterlimit:4;" d="M 8.002579 7.999025 L 311.65364 7.999025 " transform="matrix(0,-0.75,0.75,0,95.531981,307.365215)"/><path style="fill:none;stroke-width:16;stroke-linecap:round;stroke-linejoin:miter;stroke:#ba9593;stroke-opacity:1;stroke-miterlimit:4;" d="M 8.002579 8.000119 L 311.65364 8.000119 " transform="matrix(0,-0.75,0.75,0,71.999911,307.365215)"/></g></svg>